<svg id="Layer_1" enable-background="new 0 0 512 512" height="512" viewBox="0 0 512 512" width="512" xmlns="http://www.w3.org/2000/svg"><g><path d="m60.895 415.183h390.21c31.303-41.15 49.897-92.493 49.897-148.185 0-135.311-109.691-245.002-245.002-245.002s-245.002 109.691-245.002 245.002c0 55.692 18.594 107.035 49.897 148.185z" fill="#ffdd40"/><path d="m60.895 79.25v335.933c9.373 12.322 19.901 23.715 31.397 34.051l89.857 51.411c9.387 2.965 19.014 5.387 28.851 7.214h89.999c9.838-1.827 19.464-4.249 28.851-7.214l89.857-51.411c11.496-10.336 22.024-21.729 31.397-34.051v-335.933z" fill="#e9efff"/><path d="m60.895 415.183c9.373 12.322 19.901 23.715 31.397 34.051l89.857 51.411c9.387 2.965 19.014 5.387 28.851 7.214h10.04v-81.109c-11.985-22.5 8.485-36 8.485-36v-15c-24.501-6.167-19.978-27.166-19.978-27.166v-29.203c-13.479-24.619 13.284-37.634 13.284-37.634l35.077-74.497-37.397-49.976c-24.015 4.274-25.568-18.586-25.568-18.586-65.083-5.561-59.041-57.439-59.041-57.439-.664-.665-1.246-1.332-1.783-2h-73.224z" fill="#d3dcfb"/><path d="m175.25 51.47c0 16.447-13.333 29.78-29.78 29.78h305.635v-29.78z" fill="#d3dcfb"/><path d="m60.895 51.47v29.78h86.575c16.447 0 29.78-13.333 29.78-29.78z" fill="#4fabf7"/><path d="m135.901 53.404c-.643-.643-1.172-1.289-1.618-1.934h-73.388v29.78h75.006c-13.395-13.395 0-27.846 0-27.846z" fill="#1886ea"/><path d="m434.062 0h-356.124c-9.412 0-17.043 7.63-17.043 17.043v36.207h390.209v-36.207c.001-9.413-7.629-17.043-17.042-17.043z" fill="#3c58a0"/><path d="m77.938 0c-9.412 0-17.043 7.63-17.043 17.043v36.207h74.862c-7.648-7.856.144-16.123.144-16.123v-21.004c-8.126-8.126 0-16.123 0-16.123z" fill="#2a428c"/><circle cx="105.054" cy="26.625" fill="#ff4155" r="10.502"/><circle cx="135.901" cy="26.625" fill="#ffdd40" r="10.502"/><circle cx="166.748" cy="26.625" fill="#4ce088" r="10.502"/><g><path d="m356.679 34.125h-148.906c-4.142 0-7.5-3.357-7.5-7.5s3.358-7.5 7.5-7.5h148.907c4.142 0 7.5 3.357 7.5 7.5-.001 4.143-3.359 7.5-7.501 7.5z" fill="#1c2e7a"/></g><g><path d="m410.727 34.125h-19.119c-4.142 0-7.5-3.357-7.5-7.5s3.358-7.5 7.5-7.5h19.119c4.142 0 7.5 3.357 7.5 7.5s-3.358 7.5-7.5 7.5z" fill="#1c2e7a"/></g><path d="m290.96 426.75h-69.92c-5.55 0-10.049 4.499-10.049 10.049v71.061c14.592 2.709 29.632 4.14 45.009 4.14s30.417-1.431 45.008-4.141v-71.061c0-5.549-4.499-10.048-10.048-10.048z" fill="#9181f2"/><path d="m409.752 426.75h-69.92c-5.55 0-10.049 4.499-10.049 10.049v63.885c33.747-10.645 64.336-28.398 90.017-51.503v-12.383c0-5.549-4.499-10.048-10.048-10.048z" fill="#fc90ce"/><path d="m172.168 426.75h-69.92c-5.55 0-10.049 4.499-10.049 10.049v12.383c25.681 23.105 56.27 40.857 90.017 51.503v-63.885c.001-5.551-4.498-10.05-10.048-10.05z" fill="#4fabf7"/><g><path d="m137.208 390.75h-9.573c-4.142 0-7.5-3.357-7.5-7.5s3.358-7.5 7.5-7.5h9.573c4.142 0 7.5 3.357 7.5 7.5 0 4.142-3.358 7.5-7.5 7.5z" fill="#bec8f7"/></g><g><path d="m183.861 390.75h-21.555c-4.142 0-7.5-3.357-7.5-7.5s3.358-7.5 7.5-7.5h21.555c4.142 0 7.5 3.357 7.5 7.5 0 4.142-3.358 7.5-7.5 7.5z" fill="#bec8f7"/></g><g><path d="m239.098 390.75h-9.573c-4.142 0-7.5-3.357-7.5-7.5s3.358-7.5 7.5-7.5h9.573c4.142 0 7.5 3.357 7.5 7.5 0 4.142-3.358 7.5-7.5 7.5z" fill="#bec8f7"/></g><g><path d="m285.75 390.75h-21.555c-4.142 0-7.5-3.357-7.5-7.5s3.358-7.5 7.5-7.5h21.555c4.142 0 7.5 3.357 7.5 7.5 0 4.142-3.357 7.5-7.5 7.5z" fill="#bec8f7"/></g><g><path d="m340.988 390.75h-9.573c-4.142 0-7.5-3.357-7.5-7.5s3.358-7.5 7.5-7.5h9.573c4.142 0 7.5 3.357 7.5 7.5 0 4.142-3.358 7.5-7.5 7.5z" fill="#bec8f7"/></g><g><path d="m387.641 390.75h-21.555c-4.142 0-7.5-3.357-7.5-7.5s3.358-7.5 7.5-7.5h21.555c4.142 0 7.5 3.357 7.5 7.5 0 4.142-3.358 7.5-7.5 7.5z" fill="#bec8f7"/></g><path d="m257.638 285.317c36.717 0 65.486-25.831 65.486-25.831 13.716-15.454 22.051-35.792 22.051-58.08 0-48.345-39.191-87.537-87.537-87.537s-87.537 39.192-87.537 87.537c0 22.288 8.335 42.626 22.051 58.08.002.003 28.77 25.831 65.486 25.831z" fill="#4fabf7"/><path d="m195.13 140.134c-15.479 15.79-25.029 37.414-25.029 61.273 0 22.288 8.335 42.626 22.051 58.08.001.001 12.316 11.053 31.109 18.699l33.218-67.955-34.09-53.689c-20.32 3.616-26.436-11.457-27.259-16.408z" fill="#1886ea"/><path d="m289.763 188.592c.076 4.188-.337 8.477-.785 11.337-2.113 9.314-5.164 17.423-9.067 24.102-1.77 3.028-3.977 5.781-6.562 8.182l-.331.307v2.086c0 2.162.84 4.162 2.271 6.003 8.008-.484 14.816-2.106 20.183-3.954 6.46-2.224 9.287-9.882 5.758-15.732-8.31-13.775-7.072-32.332-7.072-32.332h-4.395z" fill="#2a428c"/><path d="m301.229 220.924c-.78-1.292-1.475-2.627-2.096-3.984-9.672 5.611-13.537-2.339-13.537-2.339s-.25-.367-.708-1.048c-1.462 3.799-3.122 7.302-4.978 10.478-1.77 3.028-3.977 5.781-6.562 8.182l-.331.307v2.086c0 2.162.84 4.162 2.271 6.003 8.008-.484 14.816-2.106 20.183-3.954 6.46-2.223 9.288-9.881 5.758-15.731z" fill="#1c2e7a"/><path d="m219.824 236.656c5.366 1.848 12.175 3.47 20.183 3.954 1.431-1.841 2.271-3.841 2.271-6.003v-2.562l-.317-.306c-2.365-2.283-4.404-4.877-6.058-7.707-3.905-6.684-6.955-14.79-9.065-24.093-.462-2.697-.88-7.057-.787-11.346h-4.913s1.238 18.557-7.072 32.332c-3.529 5.849-.701 13.507 5.758 15.731z" fill="#1c2e7a"/><g><path d="m276.671 135.115c-4.979-2.569-11.17-4.351-18.765-4.351-7.594 0-13.786 1.782-18.765 4.351-10.899 5.623-17.616 16.789-17.616 28.837v14.862l.001.005c1.719-.04 3.621.523 4.846 1.34.451-1.477 1.069-2.756 1.905-3.697.752-.847 1.223-1.895 1.257-3.017.128-4.291 1.254-14.43 8.809-18.311 2.105-1.081 4.677-.256 5.859 1.794 4.551 7.891 15.167 18.289 38.776 13.857 1.674-.314 3.248.931 3.3 2.634 0 .009.001.018.001.027.033 1.121.505 2.169 1.257 3.017.835.941 1.453 2.22 1.904 3.697 1.225-.817 3.127-1.38 4.846-1.34l.001-.005v-14.862c0-12.049-6.716-23.215-17.616-28.838z" fill="#2a428c"/></g><path d="m257.453 168.135c-11.701-22.354 10.283-36.281 10.283-36.281-2.979-.689-6.246-1.09-9.829-1.09-7.594 0-13.786 1.782-18.765 4.351-10.899 5.623-17.616 16.789-17.616 28.837v14.862l.001.005c1.719-.04 3.621.523 4.846 1.34.452-1.477 1.069-2.756 1.904-3.697.752-.847 1.224-1.895 1.257-3.017.128-4.291 1.254-14.43 8.809-18.311 2.105-1.081 4.677-.256 5.859 1.794 2.46 4.266 6.7 9.26 13.8 12.252-.184-.349-.367-.698-.549-1.045z" fill="#1c2e7a"/><path d="m226.073 200.084s-1.973-12.488.299-19.925c-2.062-1.375-6.046-2.046-7.838-.294-3.669 3.587-.981 9.003.306 12.424.395 1.05.65 2.113.765 3.177.25 2.313 1.504 5.698 6.704 5.618-.079-.333-.159-.661-.236-1z" fill="#fd995b"/><path d="m297.279 179.865c-1.792-1.752-5.776-1.081-7.838.294 2.273 7.437.3 19.925.3 19.925-.077.339-.157.667-.236 1 5.199.08 6.453-3.305 6.704-5.618.115-1.064.37-2.127.765-3.177 1.286-3.422 3.974-8.838.305-12.424z" fill="#fcad6d"/><path d="m224.575 250.901c5.855 10.02 14.722 17.814 25.643 22.539 4.891 2.116 10.5 2.116 15.39 0 10.92-4.725 19.788-12.518 25.643-22.539.211-.36.411-.737.614-1.109-9.2-3.511-17.81-8.532-17.81-15.118 0-2.281 0-1.598 0-3.075-3.978 3.556-10.799 8.087-16.417 8.223-5.618-.136-12.439-4.667-16.417-8.223 0 4.241 1.126 9.346-12.204 15.818-1.622.788-3.361 1.527-5.144 2.216.232.426.461.856.702 1.268z" fill="#fcad6d"/><path d="m257.299 239.797c-5.552-.302-12.18-4.713-16.079-8.199 0 4.241 1.126 9.346-12.204 15.818-1.622.788-3.361 1.527-5.144 2.216.232.427.462.857.702 1.269 4.507 7.713 10.803 14.099 18.441 18.789 9.382-9.368 12.969-21.108 14.284-29.893z" fill="#fd995b"/><path d="m313.648 255.942c-1.243-.335-13.042-2.581-23.441-6.803-.305.549-.601 1.115-.914 1.651-5.514 9.437-13.865 16.777-24.15 21.226-4.606 1.992-9.888 1.992-14.494 0-10.285-4.45-18.635-11.789-24.15-21.226-.343-.587-.667-1.204-1-1.806-10.66 4.393-23.818 6.945-23.873 6.959-2.252.432-5.762 1.413-9.475 3.545 16.036 18.067 39.429 29.456 65.486 29.456s49.451-11.389 65.486-29.457c-3.713-2.133-7.223-3.113-9.475-3.545z" fill="#fc90ce"/><path d="m286.539 173.437c-.017-.546-.051-1.205-.115-1.943-.192-.277-.42-.53-.689-.746-.814-.655-1.874-.919-2.9-.728-22.512 4.225-33.066-5-37.96-13.482-.894-1.55-2.442-2.483-4.082-2.635-1.389.385-2.665.962-3.824 1.734-6.596 4.392-7.578 13.911-7.694 17.8-.03 1.022-.443 2.008-1.192 2.852-4.131 4.654-3.226 18.253-2.262 23.852 2.134 9.42 5.226 17.634 9.187 24.414 4.022 6.883 10.112 12.236 17.613 15.481 3.36 1.453 7.212 1.453 10.571 0 7.501-3.245 13.591-8.598 17.613-15.481 3.961-6.778 7.052-14.992 9.191-24.43.926-5.885 1.911-19.127-2.266-23.835-.749-.845-1.161-1.832-1.191-2.853z" fill="#f9ba8f"/><path d="m262.615 224.555c-3.961-6.78-7.053-14.994-9.187-24.414-.964-5.599-1.868-19.197 2.262-23.852.75-.844 1.162-1.831 1.192-2.852.038-1.283.172-3.18.57-5.302-6.179-2.834-10.103-7.308-12.577-11.596-.894-1.55-2.442-2.483-4.082-2.635-1.389.385-2.665.962-3.824 1.734-6.596 4.392-7.578 13.911-7.694 17.8-.03 1.022-.443 2.008-1.192 2.852-4.131 4.654-3.226 18.253-2.262 23.852 2.134 9.42 5.226 17.634 9.187 24.414 4.022 6.883 10.112 12.236 17.613 15.481 3.36 1.453 7.212 1.453 10.571 0 3.097-1.34 5.949-3.044 8.518-5.062-3.654-2.87-6.733-6.379-9.095-10.42z" fill="#fcad6d"/><path d="m256 436.799c0-5.55 4.499-10.049 10.049-10.049h-45.009c-5.55 0-10.049 4.499-10.049 10.049v71.061c14.592 2.709 29.632 4.14 45.009 4.14z" fill="#816ae2"/><path d="m374.792 436.799c0-5.55 4.499-10.049 10.048-10.049h-45.008c-5.55 0-10.049 4.499-10.049 10.049v63.885c15.754-4.97 30.809-11.507 45.008-19.395v-44.49z" fill="#f964b2"/><g><path d="m137.208 436.799c0-5.55 4.499-10.049 10.048-10.049h-45.008c-5.55 0-10.049 4.499-10.049 10.049v12.383c13.692 12.319 28.791 23.098 45.008 32.107v-44.49z" fill="#1886ea"/></g><path d="m373.039 348.583h-38.937c-8.064 0-14.601-6.537-14.601-14.601 0-8.064 6.537-14.601 14.601-14.601h38.937c8.064 0 14.601 6.537 14.601 14.601 0 8.064-6.537 14.601-14.601 14.601z" fill="#5efc9e"/><path d="m350.771 333.982c0-8.064 6.537-14.601 14.601-14.601h-31.27c-8.064 0-14.601 6.537-14.601 14.601 0 8.064 6.537 14.601 14.601 14.601h31.27c-8.064 0-14.601-6.537-14.601-14.601z" fill="#4ce088"/><path d="m276.857 319.381h-134.621c-8.064 0-14.601 6.537-14.601 14.601s6.537 14.601 14.601 14.601h134.621c8.064 0 14.601-6.537 14.601-14.601s-6.537-14.601-14.601-14.601z" fill="#4fabf7"/><path d="m193.061 333.982c0-8.064 6.537-14.601 14.601-14.601h-65.426c-8.064 0-14.601 6.537-14.601 14.601s6.537 14.601 14.601 14.601h65.426c-8.064 0-14.601-6.537-14.601-14.601z" fill="#1886ea"/><path d="m244.067 268.605c-7.283-4.428-13.284-10.485-17.567-17.816-.343-.587-.667-1.204-1-1.806-10.66 4.393-23.818 6.945-23.873 6.959-2.252.432-5.762 1.413-9.475 3.545 8.424 9.491 18.881 17.135 30.685 22.258 9.313-3.043 16.174-7.745 21.23-13.14z" fill="#f964b2"/></g></svg>